<svg id="Capa_1" enable-background="new 0 0 512 512" height="512" viewBox="0 0 512 512" width="512" xmlns="http://www.w3.org/2000/svg"><g><path d="m495.484 161.032h-156.903l-6.032 16.516v149.435c0 9.121 7.395 16.516 16.516 16.516h146.419l16.516-9.047v-156.904c0-9.122-7.395-16.516-16.516-16.516z" fill="#eceaec"/><path d="m495.484 350.968c9.121 0 16.516-7.395 16.516-16.516h-148.645c-13.682 0-24.774-11.092-24.774-24.774v-148.646c-9.121 0-16.516 7.394-16.516 16.516v156.903c0 9.122 7.395 16.516 16.516 16.516h156.903z" fill="#dad8db"/><path d="m173.419 161.032h-156.903l-6.032 16.516v149.435c0 9.121 7.395 16.516 16.516 16.516h146.419l16.516-9.048v-156.903c0-9.122-7.394-16.516-16.516-16.516z" fill="#e9f6ff"/><path d="m86.71 247.742v45.638c-.651-.785-1.333-1.551-2.064-2.283-6.244-6.244-14.518-9.542-23.523-10.084-1.879-.113-3.522 1.529-3.409 3.409.541 9.005 3.84 17.279 10.084 23.523 7.041 7.041 16.663 10.337 27.005 10.156 0-.003 0-.006 0-.008.056.001.11.008.166.008l8.258-8.258v-62.101z" fill="#8ce1a4"/><path d="m123.89 206.487c-3.955.512-10.24 2.624-14.862 4.833-2.813-7.28-7.782-13.349-14.06-17.269-6.288 3.926-11.26 10.008-14.07 17.302l-10.231 7.313c0 10.167 5.958 36.333 24.301 36.333 2.965 0 8.573-.117 8.573-.117 14.188-3.78 24.641-16.718 24.641-32.097 0-5.927-1.571-11.48-4.292-16.298z" fill="#ff7d91"/><path d="m128.64 281.013c1.88-.113 3.522 1.529 3.409 3.409-.541 9.005-3.84 17.279-10.084 23.523-7.041 7.041-16.664 10.337-27.005 10.157-.18-10.341 3.115-19.963 10.157-27.005 6.245-6.244 14.518-9.543 23.523-10.084z" fill="#afefa5"/><path d="m463.879 302.633-36.96-97.935c-1.629-3.952-5.444-6.504-9.718-6.504s-8.089 2.552-9.798 6.714l-37.21 97.702c-1.621 4.262.516 9.032 4.782 10.657 4.258 1.601 9.024-.52 10.653-4.778l7.242-19.016h48.39l7.167 18.992c1.25 3.306 4.387 5.347 7.726 5.347.968 0 1.952-.173 2.919-.536 4.267-1.611 6.42-6.377 4.807-10.643zm-64.718-29.677 18.016-47.306 17.851 47.306z" fill="#5d5360"/><path d="m270.097 266.677c-3.226-3.226-8.452-3.226-11.677 0-3.226 3.226-3.226 8.452 0 11.677l10.677 10.677h-46.129c-4.565 0-8.258 3.698-8.258 8.258s3.694 8.258 8.258 8.258h46.129l-10.677 10.677c-3.226 3.226-3.226 8.452 0 11.677 1.613 1.613 3.726 2.419 5.839 2.419s4.226-.806 5.839-2.419l24.774-24.774c3.226-3.226 3.226-8.452 0-11.677z" fill="#b6b1b7"/><path d="m222.968 222.968h46.129l-10.677 10.677c-3.226 3.226-3.226 8.452 0 11.677 1.613 1.613 3.726 2.419 5.839 2.419s4.226-.806 5.839-2.419l24.774-24.774c3.226-3.226 3.226-8.452 0-11.677l-24.774-24.774c-3.226-3.226-8.452-3.226-11.677 0-3.226 3.226-3.226 8.452 0 11.677l10.677 10.677h-46.129c-4.565 0-8.258 3.698-8.258 8.258-.001 4.561 3.692 8.259 8.257 8.259z" fill="#c1e1f8"/><path d="m173.419 350.968c9.121 0 16.516-7.395 16.516-16.516h-148.645c-13.682 0-24.774-11.092-24.774-24.774v-148.646c-9.121 0-16.516 7.394-16.516 16.516v156.903c0 9.122 7.395 16.516 16.516 16.516h156.903z" fill="#d9edff"/><path d="m78.817 222.786c0-4.065.739-7.836 2.081-11.432-.013.033.013-.033 0 0-4.64-2.191-11.005-4.369-14.851-4.867-2.722 4.818-4.293 10.371-4.293 16.299 0 18.343 14.87 33.214 33.214 33.214 2.969 0 5.835-.386 8.573-1.117-14.182-3.784-24.724-16.723-24.724-32.097z" fill="#e15f78"/></g></svg>